<svg width="220" height="40" viewBox="0 0 220 40" fill="none" xmlns="http://www.w3.org/2000/svg">
<path d="M10.559 31.4261C8.42831 31.4261 6.58172 30.9574 5.01922 30.0199C3.45672 29.0824 2.2446 27.7708 1.38286 26.0852C0.530584 24.3996 0.104448 22.4299 0.104448 20.1761C0.104448 17.9223 0.530584 15.9479 1.38286 14.2528C2.2446 12.5578 3.45672 11.2415 5.01922 10.304C6.58172 9.36648 8.42831 8.89773 10.559 8.89773C12.6897 8.89773 14.5363 9.36648 16.0988 10.304C17.6613 11.2415 18.8687 12.5578 19.7209 14.2528C20.5827 15.9479 21.0135 17.9223 21.0135 20.1761C21.0135 22.4299 20.5827 24.3996 19.7209 26.0852C18.8687 27.7708 17.6613 29.0824 16.0988 30.0199C14.5363 30.9574 12.6897 31.4261 10.559 31.4261ZM10.5874 27.3068C11.7427 27.3068 12.7086 26.9896 13.4851 26.3551C14.2616 25.7112 14.8393 24.8494 15.2181 23.7699C15.6063 22.6903 15.8005 21.4877 15.8005 20.1619C15.8005 18.8267 15.6063 17.6193 15.2181 16.5398C14.8393 15.4508 14.2616 14.5843 13.4851 13.9403C12.7086 13.2964 11.7427 12.9744 10.5874 12.9744C9.40369 12.9744 8.41884 13.2964 7.63286 13.9403C6.85634 14.5843 6.27396 15.4508 5.8857 16.5398C5.50691 17.6193 5.31752 18.8267 5.31752 20.1619C5.31752 21.4877 5.50691 22.6903 5.8857 23.7699C6.27396 24.8494 6.85634 25.7112 7.63286 26.3551C8.41884 26.9896 9.40369 27.3068 10.5874 27.3068ZM108.386 31V9.18182H113.3V12.8892H113.556C114.011 11.6392 114.764 10.6638 115.815 9.96307C116.866 9.25284 118.121 8.89773 119.579 8.89773C121.056 8.89773 122.301 9.25758 123.315 9.97727C124.337 10.6875 125.057 11.6581 125.474 12.8892H125.701C126.184 11.6771 126.998 10.7112 128.144 9.99148C129.3 9.26231 130.668 8.89773 132.249 8.89773C134.257 8.89773 135.895 9.5322 137.164 10.8011C138.433 12.0701 139.068 13.9214 139.068 16.3551V31H133.911V17.1506C133.911 15.7964 133.551 14.8068 132.832 14.1818C132.112 13.5473 131.231 13.2301 130.19 13.2301C128.949 13.2301 127.979 13.6184 127.278 14.3949C126.586 15.1619 126.241 16.161 126.241 17.392V31H121.198V16.9375C121.198 15.8106 120.857 14.911 120.175 14.2386C119.503 13.5663 118.622 13.2301 117.533 13.2301C116.795 13.2301 116.122 13.4195 115.516 13.7983C114.91 14.1676 114.427 14.6932 114.068 15.375C113.708 16.0473 113.528 16.8333 113.528 17.733V31H108.386Z" fill="#6F00FF"/>
<path d="M25.3779 39.1818V9.18182H30.4347V12.7898H30.733C30.9982 12.2595 31.3722 11.696 31.8552 11.0994C32.3381 10.4934 32.9915 9.97727 33.8154 9.55114C34.6392 9.11553 35.6904 8.89773 36.9688 8.89773C38.6544 8.89773 40.1743 9.3286 41.5285 10.1903C42.8921 11.0426 43.9716 12.3068 44.7671 13.983C45.572 15.6496 45.9745 17.6951 45.9745 20.1193C45.9745 22.5152 45.5815 24.5511 44.7955 26.2273C44.0095 27.9034 42.9394 29.1818 41.5853 30.0625C40.2311 30.9432 38.697 31.3835 36.983 31.3835C35.733 31.3835 34.6961 31.1752 33.8722 30.7585C33.0483 30.3419 32.3855 29.84 31.8836 29.2528C31.3911 28.6562 31.0076 28.0928 30.733 27.5625H30.5199V39.1818H25.3779ZM30.4205 20.0909C30.4205 21.5019 30.6194 22.7377 31.0171 23.7983C31.4243 24.8589 32.0067 25.6875 32.7642 26.2841C33.5313 26.8712 34.4593 27.1648 35.5483 27.1648C36.6847 27.1648 37.6364 26.8617 38.4035 26.2557C39.1705 25.6402 39.7482 24.8021 40.1364 23.7415C40.5341 22.6714 40.733 21.4545 40.733 20.0909C40.733 18.7367 40.5389 17.5341 40.1506 16.483C39.7624 15.4318 39.1847 14.608 38.4177 14.0114C37.6506 13.4148 36.6942 13.1165 35.5483 13.1165C34.4499 13.1165 33.5171 13.4053 32.75 13.983C31.983 14.5606 31.4006 15.3703 31.0029 16.4119C30.6146 17.4536 30.4205 18.6799 30.4205 20.0909ZM60.037 31.4261C57.8495 31.4261 55.9603 30.9716 54.3694 30.0625C52.7879 29.1439 51.5711 27.8466 50.7188 26.1705C49.8665 24.4848 49.4404 22.5009 49.4404 20.2188C49.4404 17.9744 49.8665 16.0047 50.7188 14.3097C51.5805 12.6051 52.7832 11.2794 54.3267 10.3324C55.8703 9.37595 57.6838 8.89773 59.7671 8.89773C61.1118 8.89773 62.3807 9.11553 63.5739 9.55114C64.7766 9.97727 65.8372 10.6402 66.7557 11.5398C67.6838 12.4394 68.4129 13.5852 68.9432 14.9773C69.4735 16.3598 69.7387 18.0076 69.7387 19.9205V21.4972H51.8552V18.0312H64.8097C64.8002 17.0464 64.5872 16.1705 64.1705 15.4034C63.7538 14.6269 63.1714 14.0161 62.4233 13.571C61.6847 13.1259 60.823 12.9034 59.8381 12.9034C58.787 12.9034 57.8637 13.1591 57.0682 13.6705C56.2728 14.1723 55.6525 14.8352 55.2074 15.6591C54.7718 16.4735 54.5493 17.3684 54.5398 18.3438V21.3693C54.5398 22.6383 54.7718 23.7273 55.2358 24.6364C55.6999 25.536 56.3485 26.2273 57.1819 26.7102C58.0152 27.1837 58.9906 27.4205 60.108 27.4205C60.8561 27.4205 61.5332 27.3163 62.1392 27.108C62.7453 26.8902 63.2709 26.5729 63.716 26.1562C64.161 25.7396 64.4972 25.2235 64.7245 24.608L69.5256 25.1477C69.2226 26.4167 68.6449 27.5246 67.7927 28.4716C66.9499 29.4091 65.8703 30.1383 64.554 30.6591C63.2377 31.1705 61.7321 31.4261 60.037 31.4261ZM79.2309 18.2159V31H74.0888V9.18182H79.0036V12.8892H79.2593C79.7612 11.6676 80.5614 10.697 81.6598 9.97727C82.7678 9.25758 84.1362 8.89773 85.765 8.89773C87.2706 8.89773 88.5822 9.2197 89.6996 9.86364C90.8265 10.5076 91.6977 11.4403 92.3133 12.6619C92.9383 13.8835 93.246 15.3655 93.2365 17.108V31H88.0945V17.9034C88.0945 16.4451 87.7157 15.304 86.9581 14.4801C86.21 13.6562 85.1731 13.2443 83.8473 13.2443C82.9477 13.2443 82.1475 13.4432 81.4468 13.8409C80.7555 14.2292 80.211 14.7926 79.8133 15.5312C79.425 16.2699 79.2309 17.1648 79.2309 18.2159ZM158.19 21.8239V9.18182H163.332V31H158.347V27.1222H158.119C157.627 28.3437 156.817 29.3428 155.69 30.1193C154.573 30.8958 153.195 31.2841 151.557 31.2841C150.127 31.2841 148.863 30.9669 147.764 30.3324C146.675 29.6884 145.823 28.7557 145.207 27.5341C144.592 26.303 144.284 24.8163 144.284 23.0739V9.18182H149.426V22.2784C149.426 23.661 149.805 24.7595 150.563 25.5739C151.32 26.3883 152.314 26.7955 153.545 26.7955C154.303 26.7955 155.037 26.6108 155.747 26.2415C156.457 25.8722 157.04 25.3229 157.494 24.5938C157.958 23.8551 158.19 22.9318 158.19 21.8239ZM185.864 14.9489L181.177 15.4602C181.044 14.9867 180.812 14.5417 180.481 14.125C180.159 13.7083 179.723 13.3722 179.174 13.1165C178.625 12.8608 177.952 12.733 177.157 12.733C176.087 12.733 175.187 12.965 174.458 13.429C173.738 13.893 173.383 14.4943 173.393 15.233C173.383 15.8674 173.615 16.3835 174.089 16.7812C174.572 17.179 175.367 17.5057 176.475 17.7614L180.197 18.5568C182.261 19.0019 183.795 19.7074 184.799 20.6733C185.812 21.6392 186.324 22.9034 186.333 24.4659C186.324 25.839 185.921 27.0511 185.126 28.1023C184.34 29.1439 183.246 29.9583 181.845 30.5455C180.443 31.1326 178.833 31.4261 177.015 31.4261C174.345 31.4261 172.195 30.8674 170.566 29.75C168.937 28.6231 167.967 27.0559 167.654 25.0483L172.668 24.5653C172.896 25.5502 173.379 26.2936 174.117 26.7955C174.856 27.2973 175.817 27.5483 177.001 27.5483C178.222 27.5483 179.202 27.2973 179.941 26.7955C180.689 26.2936 181.063 25.6733 181.063 24.9347C181.063 24.3097 180.822 23.7936 180.339 23.3864C179.865 22.9792 179.127 22.6667 178.123 22.4489L174.401 21.6676C172.309 21.232 170.76 20.4981 169.756 19.4659C168.753 18.4242 168.255 17.108 168.265 15.517C168.255 14.1723 168.62 13.0076 169.359 12.0227C170.107 11.0284 171.144 10.2614 172.47 9.72159C173.805 9.17235 175.344 8.89773 177.086 8.89773C179.643 8.89773 181.655 9.44223 183.123 10.5312C184.6 11.6203 185.514 13.0928 185.864 14.9489ZM190.573 31V9.18182H195.715V31H190.573ZM193.158 6.08523C192.344 6.08523 191.643 5.81534 191.056 5.27557C190.469 4.72632 190.175 4.06818 190.175 3.30114C190.175 2.52462 190.469 1.86648 191.056 1.3267C191.643 0.777461 192.344 0.50284 193.158 0.50284C193.982 0.50284 194.683 0.777461 195.261 1.3267C195.848 1.86648 196.141 2.52462 196.141 3.30114C196.141 4.06818 195.848 4.72632 195.261 5.27557C194.683 5.81534 193.982 6.08523 193.158 6.08523ZM210.52 31.4261C208.342 31.4261 206.472 30.9479 204.909 29.9915C203.356 29.035 202.158 27.714 201.315 26.0284C200.482 24.3333 200.065 22.3826 200.065 20.1761C200.065 17.9602 200.492 16.0047 201.344 14.3097C202.196 12.6051 203.399 11.2794 204.952 10.3324C206.514 9.37595 208.361 8.89773 210.492 8.89773C212.262 8.89773 213.83 9.22443 215.193 9.87784C216.566 10.5218 217.66 11.4356 218.474 12.6193C219.289 13.7936 219.753 15.1667 219.867 16.7386H214.952C214.753 15.6875 214.279 14.8116 213.531 14.1108C212.793 13.4006 211.803 13.0455 210.563 13.0455C209.511 13.0455 208.588 13.3295 207.793 13.8977C206.997 14.4564 206.377 15.2614 205.932 16.3125C205.496 17.3636 205.278 18.6231 205.278 20.0909C205.278 21.5777 205.496 22.8561 205.932 23.9261C206.367 24.9867 206.978 25.8059 207.764 26.3835C208.56 26.9517 209.492 27.2358 210.563 27.2358C211.32 27.2358 211.997 27.0937 212.594 26.8097C213.2 26.5161 213.706 26.0947 214.114 25.5455C214.521 24.9962 214.8 24.3286 214.952 23.5426H219.867C219.743 25.0862 219.289 26.4545 218.503 27.6477C217.717 28.8314 216.647 29.7595 215.293 30.4318C213.938 31.0947 212.348 31.4261 210.52 31.4261Z" fill="#212529"/>
</svg>
